<?xml version="1.0" encoding="utf-8"?><!-- Uploaded to: SVG Repo, www.svgrepo.com, Generator: SVG Repo Mixer Tools -->
<svg version="1.1" id="Uploaded to svgrepo.com" xmlns="http://www.w3.org/2000/svg" xmlns:xlink="http://www.w3.org/1999/xlink" 
	 width="800px" height="800px" viewBox="0 0 32 32" xml:space="preserve">
<style type="text/css">
	.feather_een{fill:#0B1719;}
</style>
<path class="feather_een" d="M26,5h-1.118L25,4l0,0c0.552,0,1-0.448,1-1V2.414c0-0.265-0.105-0.52-0.293-0.707l-1.414-1.414
	C24.105,0.105,23.851,0,23.586,0H10.414c-0.265,0-0.52,0.105-0.707,0.293L8.293,1.707C8.105,1.895,8,2.149,8,2.414V3
	c0,0.552,0.448,1,1,1l0,0l2,17h-0.382c-0.379,0-0.725,0.214-0.894,0.553l-1.512,3.025C8.072,24.855,8,25.162,8,25.472V30
	c0,0.552,0.448,1,1,1l0,0c0,0.552,0.448,1,1,1h1c0.552,0,1-0.448,1-1h10c0,0.552,0.448,1,1,1h1c0.552,0,1-0.448,1-1l0,0
	c0.552,0,1-0.448,1-1v-4.528c0-0.311-0.072-0.617-0.211-0.894l-1.512-3.025C24.107,21.214,23.761,21,23.382,21H23l0.687-5.842
	l3.208-1.607C27.572,13.213,28,12.521,28,11.764V7C28,5.895,27.105,5,26,5z M9,3V2.414L10.414,1h13.172L25,2.414V3H9z M23.382,22
	l1.512,3.025C24.964,25.164,25,25.317,25,25.472V30h-1v1h-1v-1H11v1h-1v-1H9v-4.528c0-0.155,0.036-0.308,0.106-0.447L10.618,22
	L23.382,22z M21.993,21h-9.986L10.83,11H23.17L21.993,21z M10.713,10l-0.706-6h13.986l-0.706,6H10.713z M27,11.764
	c0,0.381-0.212,0.724-0.553,0.894l-2.62,1.309L24.765,6H26c0.551,0,1,0.449,1,1V11.764z M18,26c0,0.552-0.448,1-1,1s-1-0.448-1-1
	s0.448-1,1-1S18,25.448,18,26z M15,26c0,0.552-0.448,1-1,1s-1-0.448-1-1s0.448-1,1-1S15,25.448,15,26z M21,26c0,0.552-0.448,1-1,1
	s-1-0.448-1-1s0.448-1,1-1S21,25.448,21,26z"/>
</svg>